<svg xmlns="http://www.w3.org/2000/svg" width="1091.236" height="952.3" viewBox="0 0 1091.236 952.3">
  <path id="Path_2668" data-name="Path 2668" d="M620.854,254.889c78.152,6.553,158.971-12.041,228.17,24.867,75.247,40.135,129.51,109,166.7,185.747,41.836,86.327,81.466,182.341,56.582,274.988-25.365,94.44-95.939,183.417-188.316,215.493C796.964,986.2,712.916,900.67,620.854,897.248c-86.2-3.2-169.984,73.589-249.3,39.689-82.358-35.2-118.2-130-154.041-212.079-39.491-90.452-90.073-187.624-61.746-282.169,28.5-95.128,115.232-166.5,207.314-203.679,81.828-33.042,169.835,8.505,257.773,15.879" transform="matrix(0.966, -0.259, 0.259, 0.966, -201.091, 60.837)" fill="#f8f3ff"/>
</svg>
