<svg xmlns="http://www.w3.org/2000/svg" width="177" height="105" viewBox="0 0 177 105">
  <g id="pattern" transform="translate(-4107 1112) rotate(-90)">
    <circle id="Ellipse_3022" data-name="Ellipse 3022" cx="4.5" cy="4.5" r="4.5" transform="translate(1007 4107)" fill="#944dfb"/>
    <circle id="Ellipse_3023" data-name="Ellipse 3023" cx="4.5" cy="4.5" r="4.5" transform="translate(1031 4107)" fill="#944dfb"/>
    <circle id="Ellipse_3024" data-name="Ellipse 3024" cx="4.5" cy="4.5" r="4.5" transform="translate(1055 4107)" fill="#944dfb"/>
    <circle id="Ellipse_3025" data-name="Ellipse 3025" cx="4.5" cy="4.5" r="4.5" transform="translate(1079 4107)" fill="#944dfb"/>
    <circle id="Ellipse_3026" data-name="Ellipse 3026" cx="4.5" cy="4.5" r="4.5" transform="translate(1103 4107)" fill="#944dfb"/>
    <circle id="Ellipse_3027" data-name="Ellipse 3027" cx="4.5" cy="4.5" r="4.5" transform="translate(1007 4131)" fill="#944dfb"/>
    <circle id="Ellipse_3028" data-name="Ellipse 3028" cx="4.5" cy="4.5" r="4.5" transform="translate(1031 4131)" fill="#944dfb"/>
    <circle id="Ellipse_3029" data-name="Ellipse 3029" cx="4.5" cy="4.5" r="4.5" transform="translate(1055 4131)" fill="#944dfb"/>
    <circle id="Ellipse_3030" data-name="Ellipse 3030" cx="4.5" cy="4.5" r="4.5" transform="translate(1079 4131)" fill="#944dfb"/>
    <circle id="Ellipse_3031" data-name="Ellipse 3031" cx="4.5" cy="4.5" r="4.5" transform="translate(1103 4131)" fill="#944dfb"/>
    <circle id="Ellipse_3032" data-name="Ellipse 3032" cx="4.5" cy="4.5" r="4.5" transform="translate(1007 4155)" fill="#944dfb"/>
    <circle id="Ellipse_3033" data-name="Ellipse 3033" cx="4.5" cy="4.5" r="4.5" transform="translate(1031 4155)" fill="#944dfb"/>
    <circle id="Ellipse_3034" data-name="Ellipse 3034" cx="4.5" cy="4.5" r="4.5" transform="translate(1055 4155)" fill="#944dfb"/>
    <circle id="Ellipse_3035" data-name="Ellipse 3035" cx="4.5" cy="4.5" r="4.5" transform="translate(1079 4155)" fill="#944dfb"/>
    <circle id="Ellipse_3036" data-name="Ellipse 3036" cx="4.5" cy="4.5" r="4.5" transform="translate(1103 4155)" fill="#944dfb"/>
    <circle id="Ellipse_3037" data-name="Ellipse 3037" cx="4.5" cy="4.5" r="4.5" transform="translate(1007 4179)" fill="#944dfb"/>
    <circle id="Ellipse_3038" data-name="Ellipse 3038" cx="4.5" cy="4.5" r="4.5" transform="translate(1031 4179)" fill="#944dfb"/>
    <circle id="Ellipse_3039" data-name="Ellipse 3039" cx="4.5" cy="4.5" r="4.5" transform="translate(1055 4179)" fill="#944dfb"/>
    <circle id="Ellipse_3040" data-name="Ellipse 3040" cx="4.5" cy="4.5" r="4.5" transform="translate(1079 4179)" fill="#944dfb"/>
    <circle id="Ellipse_3041" data-name="Ellipse 3041" cx="4.5" cy="4.5" r="4.5" transform="translate(1103 4179)" fill="#944dfb"/>
    <circle id="Ellipse_3042" data-name="Ellipse 3042" cx="4.5" cy="4.5" r="4.5" transform="translate(1007 4203)" fill="#944dfb"/>
    <circle id="Ellipse_3043" data-name="Ellipse 3043" cx="4.5" cy="4.5" r="4.5" transform="translate(1031 4203)" fill="#944dfb"/>
    <circle id="Ellipse_3044" data-name="Ellipse 3044" cx="4.5" cy="4.5" r="4.5" transform="translate(1055 4203)" fill="#944dfb"/>
    <circle id="Ellipse_3045" data-name="Ellipse 3045" cx="4.5" cy="4.5" r="4.5" transform="translate(1079 4203)" fill="#944dfb"/>
    <circle id="Ellipse_3046" data-name="Ellipse 3046" cx="4.5" cy="4.5" r="4.5" transform="translate(1103 4203)" fill="#944dfb"/>
    <circle id="Ellipse_3047" data-name="Ellipse 3047" cx="4.5" cy="4.5" r="4.5" transform="translate(1007 4227)" fill="#944dfb"/>
    <circle id="Ellipse_3048" data-name="Ellipse 3048" cx="4.5" cy="4.5" r="4.5" transform="translate(1031 4227)" fill="#944dfb"/>
    <circle id="Ellipse_3049" data-name="Ellipse 3049" cx="4.5" cy="4.5" r="4.5" transform="translate(1055 4227)" fill="#944dfb"/>
    <circle id="Ellipse_3050" data-name="Ellipse 3050" cx="4.5" cy="4.5" r="4.5" transform="translate(1079 4227)" fill="#944dfb"/>
    <circle id="Ellipse_3051" data-name="Ellipse 3051" cx="4.5" cy="4.5" r="4.5" transform="translate(1103 4227)" fill="#944dfb"/>
    <circle id="Ellipse_3052" data-name="Ellipse 3052" cx="4.5" cy="4.5" r="4.5" transform="translate(1007 4251)" fill="#944dfb"/>
    <circle id="Ellipse_3053" data-name="Ellipse 3053" cx="4.5" cy="4.5" r="4.5" transform="translate(1031 4251)" fill="#944dfb"/>
    <circle id="Ellipse_3054" data-name="Ellipse 3054" cx="4.5" cy="4.5" r="4.5" transform="translate(1055 4251)" fill="#944dfb"/>
    <circle id="Ellipse_3055" data-name="Ellipse 3055" cx="4.5" cy="4.5" r="4.5" transform="translate(1079 4251)" fill="#944dfb"/>
    <circle id="Ellipse_3056" data-name="Ellipse 3056" cx="4.5" cy="4.5" r="4.5" transform="translate(1103 4251)" fill="#944dfb"/>
    <circle id="Ellipse_3057" data-name="Ellipse 3057" cx="4.5" cy="4.5" r="4.5" transform="translate(1007 4275)" fill="#944dfb"/>
    <circle id="Ellipse_3058" data-name="Ellipse 3058" cx="4.5" cy="4.5" r="4.5" transform="translate(1031 4275)" fill="#944dfb"/>
    <circle id="Ellipse_3059" data-name="Ellipse 3059" cx="4.5" cy="4.5" r="4.5" transform="translate(1055 4275)" fill="#944dfb"/>
    <circle id="Ellipse_3060" data-name="Ellipse 3060" cx="4.5" cy="4.5" r="4.5" transform="translate(1079 4275)" fill="#944dfb"/>
    <circle id="Ellipse_3061" data-name="Ellipse 3061" cx="4.5" cy="4.5" r="4.5" transform="translate(1103 4275)" fill="#944dfb"/>
  </g>
</svg>
